<svg width="40" height="46" viewBox="0 0 40 46" fill="none" xmlns="http://www.w3.org/2000/svg">
<path d="M19.7126 22.5287C25.9344 22.5287 30.977 17.4862 30.977 11.2644C30.977 5.04256 25.9344 0 19.7126 0C13.4908 0 8.44827 5.04256 8.44827 11.2644C8.44827 17.4862 13.4908 22.5287 19.7126 22.5287ZM27.5977 25.3448H26.128C24.1744 26.2424 22.0007 26.7529 19.7126 26.7529C17.4246 26.7529 15.2597 26.2424 13.2972 25.3448H11.8276C5.29777 25.3448 0 30.6426 0 37.1724V40.8333C0 43.1654 1.89206 45.0574 4.22413 45.0574H35.2011C37.5332 45.0574 39.4253 43.1654 39.4253 40.8333V37.1724C39.4253 30.6426 34.1275 25.3448 27.5977 25.3448Z" fill="#2340DC"/>
</svg>
