<svg width="16" height="15" viewBox="0 0 16 15" fill="none" xmlns="http://www.w3.org/2000/svg">
<path d="M14.5 7.5H1.5C1.10218 7.5 0.720644 7.66932 0.43934 7.97072C0.158035 8.27212 0 8.6809 0 9.10714C0 9.53338 0.158035 9.94217 0.43934 10.2436C0.720644 10.545 1.10218 10.7143 1.5 10.7143H14.5C14.8978 10.7143 15.2794 10.545 15.5607 10.2436C15.842 9.94217 16 9.53338 16 9.10714C16 8.6809 15.842 8.27212 15.5607 7.97072C15.2794 7.66932 14.8978 7.5 14.5 7.5ZM15 11.7857H1C0.867392 11.7857 0.740215 11.8422 0.646447 11.9426C0.552678 12.0431 0.5 12.1793 0.5 12.3214V12.8571C0.5 13.4255 0.710714 13.9705 1.08579 14.3724C1.46086 14.7742 1.96957 15 2.5 15H13.5C14.0304 15 14.5391 14.7742 14.9142 14.3724C15.2893 13.9705 15.5 13.4255 15.5 12.8571V12.3214C15.5 12.1793 15.4473 12.0431 15.3536 11.9426C15.2598 11.8422 15.1326 11.7857 15 11.7857ZM1.8325 6.42857H14.1675C15.2478 6.42857 15.8744 4.9587 15.2556 3.88795C14 1.71429 11.2359 0.00334821 8 0C4.76437 0.00334821 2 1.71429 0.744375 3.88761C0.125 4.95837 0.752187 6.42857 1.8325 6.42857ZM12 2.67857C12.0989 2.67857 12.1956 2.70999 12.2778 2.76886C12.36 2.82772 12.4241 2.91139 12.4619 3.00928C12.4998 3.10717 12.5097 3.21488 12.4904 3.3188C12.4711 3.42272 12.4235 3.51817 12.3536 3.59309C12.2836 3.66801 12.1945 3.71904 12.0975 3.73971C12.0006 3.76038 11.9 3.74977 11.8087 3.70922C11.7173 3.66867 11.6392 3.60001 11.5843 3.51191C11.5293 3.42382 11.5 3.32024 11.5 3.21429C11.5 3.07221 11.5527 2.93594 11.6464 2.83548C11.7402 2.73501 11.8674 2.67857 12 2.67857ZM8 1.60714C8.09889 1.60714 8.19556 1.63856 8.27779 1.69743C8.36001 1.75629 8.4241 1.83996 8.46194 1.93785C8.49978 2.03574 8.50969 2.14345 8.49039 2.24737C8.4711 2.35129 8.42348 2.44674 8.35355 2.52166C8.28363 2.59659 8.19454 2.64761 8.09755 2.66828C8.00056 2.68895 7.90002 2.67834 7.80866 2.63779C7.7173 2.59725 7.63921 2.52858 7.58427 2.44048C7.52932 2.35239 7.5 2.24881 7.5 2.14286C7.5 2.00078 7.55268 1.86452 7.64645 1.76405C7.74021 1.66358 7.86739 1.60714 8 1.60714ZM4 2.67857C4.09889 2.67857 4.19556 2.70999 4.27779 2.76886C4.36001 2.82772 4.4241 2.91139 4.46194 3.00928C4.49978 3.10717 4.50969 3.21488 4.49039 3.3188C4.4711 3.42272 4.42348 3.51817 4.35355 3.59309C4.28363 3.66801 4.19454 3.71904 4.09755 3.73971C4.00055 3.76038 3.90002 3.74977 3.80866 3.70922C3.7173 3.66867 3.63921 3.60001 3.58427 3.51191C3.52932 3.42382 3.5 3.32024 3.5 3.21429C3.5 3.07221 3.55268 2.93594 3.64645 2.83548C3.74021 2.73501 3.86739 2.67857 4 2.67857Z" fill="#FFA91A"/>
</svg>
