<svg width="17" height="17" viewBox="0 0 17 17" fill="none" xmlns="http://www.w3.org/2000/svg">
<path d="M4.15377 4.15278C4.15377 3.19569 4.75445 2.36838 5.63694 1.91742V8.30556H7.41674V1.55729H9.19654V8.30556H10.9763V1.91742C11.8588 2.36838 12.4595 3.19569 12.4595 4.15278V8.30556H14.2393V4.15278C14.2393 1.85902 12.1147 0 9.49318 0H7.12011C4.4986 0 2.37397 1.85902 2.37397 4.15278V8.30556H4.15377V4.15278ZM16.5494 11.0925L16.1526 10.0543C15.9895 9.62925 15.5371 9.34375 15.0254 9.34375H1.58418C1.07248 9.34375 0.620118 9.62925 0.45697 10.0543L0.0602219 11.0925C-0.191917 11.764 0.379103 12.4583 1.18743 12.4583V16.092C1.18743 16.3775 1.4544 16.6111 1.7807 16.6111H2.96723C3.29353 16.6111 3.5605 16.3775 3.5605 16.092V12.4583H13.0528V16.092C13.0528 16.3775 13.3198 16.6111 13.646 16.6111H14.8326C15.1589 16.6111 15.4259 16.3775 15.4259 16.092V12.4583C16.2342 12.4583 16.8052 11.764 16.5494 11.0925Z" fill="#7BBB71"/>
</svg>
