<svg width="20" height="15" viewBox="0 0 20 15" fill="none" xmlns="http://www.w3.org/2000/svg">
<path d="M19.448 3.48445L10.7311 0.136816C10.2561 -0.0456052 9.74363 -0.0456052 9.26894 0.136816L0.551721 3.48445C-0.183907 3.76687 -0.183907 4.98288 0.551721 5.2653L2.07141 5.84889C1.73798 6.36412 1.53297 6.99263 1.51266 7.68091C1.21172 7.89653 0.999848 8.28559 0.999848 8.75004C0.999848 9.17113 1.17735 9.52543 1.43297 9.75199L0.635159 14.2395C0.565784 14.6297 0.803284 15 1.12297 15H2.87642C3.19642 15 3.43392 14.6297 3.36454 14.2395L2.56673 9.75199C2.82236 9.52543 2.99986 9.17113 2.99986 8.75004C2.99986 8.29809 2.79767 7.91997 2.51048 7.70044C2.53423 7.11372 2.77423 6.59498 3.15704 6.26607L9.26863 8.61332C9.55176 8.72192 10.0949 8.85746 10.7308 8.61332L19.448 5.26569C20.184 4.98288 20.184 3.76726 19.448 3.48445ZM11.0246 9.80824C10.133 10.1504 9.37332 9.96136 8.97488 9.80824L4.44299 8.06801L3.99986 12.5C3.99986 13.8809 6.68612 15 9.99988 15C13.3136 15 15.9999 13.8809 15.9999 12.5L15.5568 8.06762L11.0246 9.80824Z" fill="#E73E72"/>
</svg>
