<svg width="20" height="21" viewBox="0 0 20 21" fill="none" xmlns="http://www.w3.org/2000/svg">
<path d="M7.49996 9.625C8.15923 9.625 8.8037 9.41973 9.35186 9.03514C9.90002 8.65056 10.3273 8.10394 10.5796 7.46439C10.8319 6.82485 10.8979 6.12112 10.7692 5.44219C10.6406 4.76325 10.3232 4.13961 9.85698 3.65013C9.39081 3.16064 8.79686 2.8273 8.15026 2.69225C7.50366 2.5572 6.83344 2.62652 6.22435 2.89142C5.61526 3.15633 5.09467 3.60493 4.72839 4.18051C4.36212 4.75608 4.16663 5.43277 4.16663 6.125C4.16663 7.05326 4.51782 7.9435 5.14294 8.59988C5.76806 9.25625 6.6159 9.625 7.49996 9.625Z" fill="#D6DA23"/>
<path d="M14.1666 11.375C14.6611 11.375 15.1444 11.2211 15.5556 10.9326C15.9667 10.6442 16.2871 10.2342 16.4763 9.75456C16.6655 9.2749 16.7151 8.7471 16.6186 8.2379C16.5221 7.7287 16.284 7.26097 15.9344 6.89386C15.5848 6.52675 15.1393 6.27674 14.6544 6.17546C14.1694 6.07417 13.6667 6.12615 13.2099 6.32483C12.7531 6.52351 12.3627 6.85997 12.088 7.29164C11.8132 7.72332 11.6666 8.23084 11.6666 8.75002C11.6666 9.44621 11.93 10.1139 12.3989 10.6062C12.8677 11.0985 13.5036 11.375 14.1666 11.375Z" fill="#D6DA23"/>
<path d="M17.5 17.5C17.721 17.5 17.9329 17.4078 18.0892 17.2437C18.2455 17.0796 18.3333 16.8571 18.3333 16.625C18.3326 15.8072 18.1137 15.006 17.7013 14.3123C17.2889 13.6185 16.6996 13.06 16.0002 12.7002C15.3009 12.3403 14.5195 12.1934 13.7446 12.2763C12.9698 12.3591 12.2326 12.6683 11.6166 13.1688C10.8004 12.3151 9.76167 11.7343 8.63148 11.4996C7.50129 11.265 6.33023 11.387 5.26598 11.8502C4.20174 12.3135 3.29197 13.0973 2.65141 14.1028C2.01085 15.1082 1.66818 16.2903 1.66663 17.5C1.66663 17.7321 1.75442 17.9546 1.9107 18.1187C2.06698 18.2828 2.27895 18.375 2.49996 18.375H12.5C12.721 18.375 12.9329 18.2828 13.0892 18.1187C13.2455 17.9546 13.3333 17.7321 13.3333 17.5" fill="#D6DA23"/>
</svg>
